# xmcd
#
# Track frame offsets:
#	150
#	28562
#	60486
#	93173
#	119831
#	171539
#	192045
#
# Disc length: 2915 seconds
#
# Revision: 1
# Processed by: cddbd v1.5.2PL0 Copyright (c) Steve Scherf et al.
# Submitted via: audiograbber 1.83.01
#
DISCID=5a0b6107
DTITLE=Grateful Dead - 82-08-28 Oregon Country Fair Site, Veneta OR
DYEAR=1900
DGENRE=
TTITLE0=Space
TTITLE1=The Wheel
TTITLE2=The Other One
TTITLE3=Truckin'
TTITLE4=Black Peter > Playing In The Band Reprise
TTITLE5=One More Saturday Night
TTITLE6=Dupree's Diamond Blues
EXTD=
EXTT0=
EXTT1=
EXTT2=
EXTT3=
EXTT4=
EXTT5=
EXTT6=
PLAYORDER=
